<?xml version="1.0" encoding="UTF-8"?>
<!DOCTYPE svg PUBLIC "-//W3C//DTD SVG 1.1//EN" "http://www.w3.org/Graphics/SVG/1.1/DTD/svg11.dtd">
<svg xmlns="http://www.w3.org/2000/svg" version="1.1" width="500px" height="500px" style="shape-rendering:geometricPrecision; text-rendering:geometricPrecision; image-rendering:optimizeQuality; fill-rule:evenodd; clip-rule:evenodd" xmlns:xlink="http://www.w3.org/1999/xlink">
<g><path style="opacity:0.857" fill="#c7c8c8" d="M 239.5,49.5 C 241.467,49.2606 243.301,49.5939 245,50.5C 245.5,113.832 245.667,177.166 245.5,240.5C 310.501,240.333 375.501,240.5 440.5,241C 442.602,242.733 442.935,244.733 441.5,247C 376.168,247.5 310.834,247.667 245.5,247.5C 245.667,314.501 245.5,381.501 245,448.5C 243,449.833 241,449.833 239,448.5C 238.5,381.501 238.333,314.501 238.5,247.5C 173.166,247.667 107.832,247.5 42.5,247C 41.0652,244.733 41.3985,242.733 43.5,241C 108.499,240.5 173.499,240.333 238.5,240.5C 238.171,176.762 238.504,113.095 239.5,49.5 Z"/></g>
<g><path style="opacity:0.87" fill="#c7c8c8" d="M 115.5,99.5 C 145.169,99.3334 174.835,99.5 204.5,100C 205,100.5 205.5,101 206,101.5C 206.667,107.167 206.667,112.833 206,118.5C 204,119.833 202,119.833 200,118.5C 199.501,114.514 199.334,110.514 199.5,106.5C 170.116,106.032 140.783,106.532 111.5,108C 89.5263,116.441 81.0263,132.274 86,155.5C 90.8976,167.875 99.7309,176.041 112.5,180C 141.458,181.459 170.458,181.959 199.5,181.5C 199.334,177.486 199.501,173.486 200,169.5C 202,166.833 204,166.833 206,169.5C 206.807,175.416 206.641,181.25 205.5,187C 174.167,187.667 142.833,187.667 111.5,187C 94.8484,183.015 84.015,172.848 79,156.5C 74.0686,126.331 86.2352,107.331 115.5,99.5 Z"/></g>
<g><path style="opacity:0.876" fill="#c7c8c8" d="M 280.5,99.5 C 316.207,99.033 351.874,99.533 387.5,101C 405.51,109.521 411.676,123.355 406,142.5C 401.942,151.556 395.109,157.389 385.5,160C 352.502,160.5 319.502,160.667 286.5,160.5C 286.666,168.84 286.5,177.173 286,185.5C 284.33,187.698 282.33,188.032 280,186.5C 279.176,157.428 279.342,128.428 280.5,99.5 Z M 286.5,106.5 C 318.502,106.333 350.502,106.5 382.5,107C 398.58,112.993 404.08,124.16 399,140.5C 395.694,146.911 390.528,151.078 383.5,153C 351.202,154.456 318.869,154.956 286.5,154.5C 286.5,138.5 286.5,122.5 286.5,106.5 Z"/></g>
<g><path style="opacity:0.835" fill="#c7c8c8" d="M 79.5,296.5 C 81.3904,296.297 82.8904,296.963 84,298.5C 96.9223,323.344 109.589,348.344 122,373.5C 127.372,362.589 132.872,351.755 138.5,341C 131.872,328.245 125.372,315.411 119,302.5C 118.486,296.993 120.486,295.659 125,298.5C 137.244,323.322 149.744,347.989 162.5,372.5C 175.256,347.989 187.756,323.322 200,298.5C 202.91,295.691 205.077,296.191 206.5,300C 193.248,328.005 179.581,355.839 165.5,383.5C 163.051,384.91 160.884,384.576 159,382.5C 153.589,371.343 147.922,360.343 142,349.5C 136.333,360.833 130.667,372.167 125,383.5C 123,384.833 121,384.833 119,383.5C 105.333,356.167 91.6667,328.833 78,301.5C 77.3872,299.505 77.8872,297.838 79.5,296.5 Z"/></g>
<g><path style="opacity:0.869" fill="#c7c8c8" d="M 280.5,296.5 C 310.169,296.333 339.835,296.5 369.5,297C 387.318,299.817 399.485,309.65 406,326.5C 411.275,346.004 406.442,362.504 391.5,376C 385.992,379.754 379.992,382.42 373.5,384C 342.5,384.667 311.5,384.667 280.5,384C 279.171,354.833 279.171,325.667 280.5,296.5 Z M 286.5,303.5 C 315.875,303.041 345.209,303.541 374.5,305C 397.929,315.026 405.762,332.193 398,356.5C 392.885,366.945 384.719,373.779 373.5,377C 344.537,378.45 315.537,378.95 286.5,378.5C 286.5,353.5 286.5,328.5 286.5,303.5 Z"/></g>
</svg>
